<?xml version="1.0" encoding="iso-8859-1"?>
<!-- Generator: Adobe Illustrator 19.0.0, SVG Export Plug-In . SVG Version: 6.00 Build 0)  -->
<svg xmlns="http://www.w3.org/2000/svg" xmlns:xlink="http://www.w3.org/1999/xlink" version="1.1" id="Layer_1" x="0px" y="0px" viewBox="0 0 512 512" style="enable-background:new 0 0 512 512;" xml:space="preserve">
<path style="fill:#FFA233;" d="M71.035,126.921c7.15,7.152,17.03,11.576,27.943,11.576c21.825,0,39.52-17.694,39.52-39.519  c0-21.827-17.695-39.52-39.52-39.52s-39.52,17.693-39.52,39.52C59.459,109.889,63.885,119.769,71.035,126.921"/>
<path style="fill:#BCAE8A;" d="M85.748,335.915l-0.002-0.024c0,0,66.737,45.075,140.131-17.195  c-26.545-38.713-83.091-65.443-148.562-65.443c-24.73,0-48.181,3.821-69.23,10.653v55.216c6.16-1.162,12.513-1.776,19.013-1.776  C48.935,317.344,69.156,324.225,85.748,335.915z"/>
<path style="fill:#B8E5F4;" d="M367.895,8.084h-79.468c-9.358,0-16.943,7.584-16.943,16.942c0,3.142,0.87,6.074,2.359,8.596h-35.292  c-9.358,0-16.943,7.585-16.943,16.942s7.585,16.942,16.943,16.942h79.468c9.36,0,16.943-7.585,16.943-16.942  c0-3.142-0.872-6.074-2.362-8.596h35.295c9.358,0,16.941-7.586,16.941-16.942C384.835,15.668,377.252,8.084,367.895,8.084z"/>
<g>
	<path style="fill:#2DA555;" d="M439.072,180.422c-10.525,0-19.059,8.532-19.059,19.058v75.336h-31.562   c-8.88,0-16.08,7.198-16.08,16.079v5.956c0,8.881,7.2,16.08,16.08,16.08h53.6c8.88,0,16.08-7.199,16.08-16.08v-2.978v-2.979   v-91.415C458.131,188.954,449.596,180.422,439.072,180.422z"/>
	<path style="fill:#2DA555;" d="M372.371,296.851v-5.956c0-6.297,3.629-11.733,8.901-14.372V123.024   c0-17.639-14.299-31.935-31.935-31.935c-17.638,0-31.935,14.296-31.935,31.935v291.089h63.87V311.225   C376,308.584,372.371,303.148,372.371,296.851z"/>
</g>
<g style="opacity:0.1;">
	<path style="fill:#231F20;" d="M362.128,93.762c-3.918-1.715-8.242-2.672-12.791-2.672c-17.638,0-31.935,14.296-31.935,31.935   v291.089h25.583V123.024C342.985,109.936,350.861,98.695,362.128,93.762z"/>
</g>
<path style="fill:#D3BD8C;" d="M80.827,503.916h93.935h329.153V296.646c-21.231-9.711-45.786-15.063-45.786-15.063v9.311v2.979  v2.978c0,8.881-7.2,16.08-16.08,16.08h-53.6c-2.583,0-5.017-0.624-7.181-1.707c0.002,0,0.002,0,0.002,0v102.888h-63.87V273.868  c0,0-47.383-0.312-90.421,43.899c-0.002,0.001-0.002,0.001-0.002,0.001c-73.827,63.668-141.233,18.123-141.233,18.123l0.002,0.024  c-16.592-11.69-36.812-18.57-58.65-18.57c-6.499,0-12.853,0.614-19.013,1.776v184.794H53.9"/>
<path style="fill:#2DA555;" d="M317.402,227.905H290.04v-69.451c0-9.703-7.865-17.57-17.569-17.57s-17.571,7.866-17.571,17.57  v84.274v2.745v2.745c0,8.188,6.638,14.823,14.825,14.823h47.676V227.905z"/>
<g>
	<path style="fill:#231F20;" d="M98.979,146.581c-12.717,0-24.671-4.953-33.659-13.944c-8.992-8.992-13.945-20.946-13.945-33.659   c0-26.25,21.355-47.604,47.604-47.604s47.604,21.355,47.604,47.604S125.229,146.581,98.979,146.581z M98.979,67.542   c-17.334,0-31.436,14.102-31.436,31.436c0,8.395,3.27,16.288,9.21,22.226c5.936,5.939,13.829,9.208,22.226,9.208   c17.334,0,31.436-14.101,31.436-31.435S116.312,67.542,98.979,67.542z"/>
	<path style="fill:#231F20;" d="M189.871,107.062h-25.686c-4.465,0-8.084-3.618-8.084-8.084s3.62-8.084,8.084-8.084h25.686   c4.466,0,8.084,3.618,8.084,8.084S194.337,107.062,189.871,107.062z"/>
	<path style="fill:#231F20;" d="M33.773,107.062H8.084c-4.466,0-8.084-3.618-8.084-8.084s3.618-8.084,8.084-8.084h25.688   c4.465,0,8.084,3.618,8.084,8.084S38.238,107.062,33.773,107.062z"/>
	<path style="fill:#231F20;" d="M145.087,60.954c-2.068,0-4.138-0.789-5.717-2.367c-3.157-3.158-3.157-8.276,0-11.433l18.165-18.165   c3.158-3.156,8.276-3.156,11.433,0c3.157,3.158,3.157,8.276,0,11.433l-18.165,18.165C149.224,60.164,147.155,60.954,145.087,60.954   z"/>
	<path style="fill:#231F20;" d="M34.707,171.334c-2.068,0-4.138-0.789-5.716-2.367c-3.158-3.157-3.158-8.276-0.001-11.433   l18.165-18.165c3.158-3.158,8.277-3.157,11.432-0.001c3.158,3.157,3.158,8.276,0.001,11.433l-18.165,18.165   C38.845,170.544,36.776,171.334,34.707,171.334z"/>
	<path style="fill:#231F20;" d="M98.979,41.855c-4.466,0-8.084-3.618-8.084-8.084V8.084C90.895,3.62,94.513,0,98.979,0   s8.084,3.62,8.084,8.084V33.77C107.063,38.236,103.444,41.855,98.979,41.855z"/>
	<path style="fill:#231F20;" d="M98.979,197.955c-4.466,0-8.084-3.618-8.084-8.084v-25.688c0-4.466,3.618-8.084,8.084-8.084   s8.084,3.618,8.084,8.084v25.688C107.063,194.337,103.444,197.955,98.979,197.955z"/>
	<path style="fill:#231F20;" d="M52.872,60.955c-2.068,0-4.138-0.789-5.717-2.367L28.991,40.423c-3.157-3.158-3.157-8.276,0-11.433   c3.158-3.156,8.276-3.156,11.433,0l18.165,18.164c3.157,3.158,3.157,8.276,0,11.433C57.01,60.165,54.94,60.955,52.872,60.955z"/>
	<path style="fill:#231F20;" d="M163.25,171.335c-2.068,0-4.138-0.789-5.717-2.367l-18.165-18.165   c-3.157-3.158-3.157-8.276,0-11.433c3.158-3.156,8.276-3.156,11.433,0l18.165,18.165c3.157,3.158,3.157,8.276,0,11.433   C167.388,170.546,165.319,171.335,163.25,171.335z"/>
	<path style="fill:#231F20;" d="M318.019,75.591h-79.468c-13.8,0-25.028-11.226-25.028-25.027s11.227-25.027,25.028-25.027h24.854   c-0.003-0.17-0.005-0.341-0.005-0.512C263.4,11.226,274.627,0,288.427,0h79.468c13.799,0,25.026,11.226,25.026,25.027   s-11.226,25.027-25.026,25.027h-24.854c0.003,0.17,0.005,0.341,0.005,0.512C343.046,64.364,331.819,75.591,318.019,75.591z    M238.552,41.706c-4.885,0-8.859,3.974-8.859,8.858c0,4.884,3.973,8.858,8.859,8.858h79.468c4.885,0,8.859-3.974,8.859-8.858   c0-1.586-0.417-3.094-1.237-4.483c-1.477-2.499-1.5-5.598-0.061-8.119c1.438-2.521,4.118-4.078,7.021-4.078h35.295   c4.883,0,8.857-3.973,8.857-8.858c0-4.884-3.973-8.858-8.857-8.858h-79.468c-4.885,0-8.859,3.974-8.859,8.858   c0,1.588,0.416,3.096,1.235,4.483c1.477,2.499,1.5,5.598,0.061,8.119c-1.438,2.521-4.118,4.078-7.021,4.078H238.552z"/>
	<path style="fill:#231F20;" d="M442.051,321.015h-53.6c-13.324,0-24.164-10.84-24.164-24.164v-5.956   c0-13.323,10.84-24.163,24.164-24.163h23.478v-67.252c0-14.967,12.177-27.142,27.144-27.142c14.967,0,27.144,12.176,27.144,27.142   v97.372C466.215,310.176,455.375,321.015,442.051,321.015z M388.451,282.9c-4.409,0-7.996,3.586-7.996,7.995v5.956   c0,4.409,3.587,7.996,7.996,7.996h53.6c4.409,0,7.996-3.587,7.996-7.996v-97.372c0-6.05-4.923-10.974-10.975-10.974   c-6.051,0-10.975,4.923-10.975,10.974v75.336c0,4.466-3.618,8.084-8.084,8.084H388.451z"/>
	<path style="fill:#231F20;" d="M507.278,289.295c-21.771-9.958-46.388-15.384-47.425-15.609c-2.393-0.521-4.887,0.068-6.794,1.603   c-1.906,1.535-3.013,3.849-3.013,6.296v15.267c0,4.409-3.587,7.996-7.996,7.996h-53.6c-1.233,0-2.431-0.287-3.558-0.852   c-0.001-0.001-0.002-0.001-0.003-0.001c-2.736-1.371-4.434-4.108-4.434-7.143v-5.956c0-3.035,1.7-5.772,4.436-7.143   c2.737-1.369,4.466-4.167,4.466-7.228v-153.5c0-22.067-17.952-40.019-40.019-40.019c-22.067,0-40.019,17.952-40.019,40.019v96.796   h-11.193v-61.367c0-14.145-11.508-25.654-25.653-25.654c-14.146,0-25.655,11.509-25.655,25.654v89.765   c0,12.632,10.277,22.907,22.91,22.907h17.327c-16.902,5.177-38.779,15.371-60.172,35.423   c-13.973-17.219-33.623-31.791-57.374-42.466c-27.536-12.374-59.415-18.915-92.192-18.915c-25.007,0-49.139,3.717-71.725,11.047   C2.257,257.298,0,260.402,0,263.905v55.216v184.794C0,508.382,3.618,512,8.084,512h45.817c4.466,0,8.084-3.618,8.084-8.084   s-3.618-8.084-8.084-8.084H16.168V326.089c0.562-0.066,1.121-0.141,1.684-0.197c0.221-0.022,0.441-0.047,0.662-0.068   c1.273-0.116,2.549-0.204,3.825-0.268c0.274-0.014,0.549-0.025,0.822-0.036c1.312-0.055,2.624-0.092,3.934-0.092   c19.45,0,38.121,5.911,53.995,17.094c0.237,0.167,0.48,0.32,0.73,0.459c0.237,0.151,0.549,0.345,0.917,0.569   c0.069,0.042,0.143,0.087,0.218,0.132c0.103,0.063,0.21,0.126,0.322,0.193c0.124,0.073,0.25,0.149,0.385,0.227   c0.066,0.039,0.135,0.079,0.204,0.119c3.392,1.978,9.903,5.415,18.869,8.557c0.099,0.034,0.197,0.07,0.297,0.105   c0.44,0.153,0.888,0.304,1.34,0.456c0.204,0.068,0.407,0.136,0.613,0.204c0.415,0.137,0.833,0.272,1.257,0.406   c0.26,0.083,0.523,0.164,0.786,0.246c0.397,0.123,0.793,0.246,1.199,0.368c0.347,0.103,0.701,0.205,1.053,0.307   c0.338,0.098,0.673,0.197,1.016,0.294c0.691,0.194,1.394,0.384,2.105,0.57c0.219,0.057,0.444,0.112,0.665,0.169   c0.548,0.14,1.099,0.279,1.659,0.414c0.233,0.056,0.469,0.111,0.704,0.166c0.578,0.136,1.161,0.27,1.752,0.399   c0.205,0.045,0.411,0.089,0.617,0.134c0.682,0.147,1.373,0.289,2.072,0.426c0.114,0.023,0.227,0.045,0.343,0.068   c2.385,0.464,4.855,0.873,7.412,1.209c1.144,0.151,2.324,0.281,3.52,0.403c0.046,0.004,0.094,0.01,0.14,0.014   c0.853,0.085,1.718,0.162,2.597,0.231c0.156,0.012,0.313,0.025,0.469,0.037c0.716,0.053,1.441,0.098,2.174,0.139   c0.305,0.017,0.609,0.037,0.916,0.052c0.469,0.023,0.945,0.038,1.42,0.055c1.48,0.055,2.973,0.094,4.494,0.094   c25.682,0,50.383-8.091,73.636-24.069c0.097-0.067,0.195-0.134,0.292-0.201c1.147-0.791,2.291-1.595,3.43-2.425   c0.309-0.225,0.621-0.461,0.93-0.69c0.721-0.534,1.442-1.071,2.161-1.62c0.604-0.46,1.208-0.929,1.813-1.402   c0.358-0.28,0.715-0.566,1.071-0.85c1.369-1.089,2.741-2.212,4.114-3.373c0.101-0.085,0.203-0.168,0.304-0.253   c0.005-0.005,0.011-0.011,0.017-0.016c0.355-0.301,0.707-0.585,1.062-0.89c0.205-0.172,0.401-0.355,0.589-0.548   c29.753-30.565,61.93-38.597,76.545-40.706v131.412c0,4.465,3.618,8.084,8.084,8.084h63.87c0.271,0,0.54-0.014,0.807-0.041   c0.204-0.021,0.403-0.055,0.603-0.089c0.06-0.011,0.121-0.016,0.181-0.028c0.236-0.047,0.468-0.108,0.696-0.175   c0.023-0.006,0.046-0.011,0.069-0.017c0.233-0.071,0.46-0.154,0.683-0.245c0.019-0.008,0.04-0.014,0.059-0.022   c0.211-0.087,0.415-0.186,0.617-0.291c0.033-0.017,0.068-0.031,0.1-0.049c0.182-0.098,0.358-0.207,0.531-0.318   c0.05-0.031,0.101-0.058,0.15-0.091c0.16-0.107,0.31-0.224,0.461-0.342c0.057-0.045,0.119-0.084,0.175-0.13   c0.157-0.129,0.306-0.269,0.454-0.411c0.043-0.041,0.089-0.077,0.132-0.119c0.042-0.042,0.078-0.088,0.119-0.132   c0.141-0.148,0.281-0.296,0.411-0.454c0.045-0.056,0.085-0.115,0.129-0.172c0.119-0.152,0.236-0.304,0.344-0.465   c0.031-0.046,0.056-0.095,0.086-0.142c0.113-0.176,0.223-0.354,0.322-0.539c0.016-0.03,0.029-0.063,0.045-0.093   c0.106-0.204,0.206-0.41,0.294-0.623c0.008-0.019,0.014-0.04,0.022-0.059c0.091-0.223,0.174-0.451,0.245-0.683   c0.007-0.023,0.011-0.046,0.017-0.069c0.067-0.229,0.127-0.459,0.175-0.696c0.012-0.059,0.017-0.121,0.028-0.181   c0.036-0.199,0.07-0.399,0.089-0.603c0.027-0.267,0.041-0.536,0.041-0.807v-93.097h52.695c13.324,0,24.164-10.84,24.164-24.164   v-4.903c7.684,2.093,18.845,5.477,29.617,9.986v193.899H80.827c-4.465,0-8.084,3.618-8.084,8.084S76.362,512,80.827,512h423.089   c4.466,0,8.084-3.618,8.084-8.084V296.646C512,293.483,510.155,290.61,507.278,289.295z M22.183,309.375   c-0.113,0.005-0.227,0.008-0.341,0.013c-1.563,0.074-3.125,0.188-4.683,0.329c-0.19,0.017-0.378,0.031-0.568,0.05   c-0.14,0.013-0.281,0.023-0.423,0.037v-39.932c19.355-5.665,39.893-8.534,61.146-8.534c57.138,0,110.068,21.756,137.457,55.955   c-22.582,17.447-46.576,26.283-71.419,26.283c-31.159,0-52.887-14.253-53.083-14.385c-0.043-0.029-0.087-0.056-0.132-0.084   c-0.071-0.046-0.142-0.094-0.213-0.138c-3.644-2.538-7.416-4.832-11.291-6.894c-15.806-8.412-33.38-12.815-51.536-12.815   C25.46,309.26,23.821,309.302,22.183,309.375z M262.986,248.219v-89.765c0-5.231,4.256-9.485,9.487-9.485   c5.23,0,9.484,4.254,9.484,9.485v69.451c0,4.466,3.618,8.084,8.084,8.084h19.278v18.97h-39.591   C266.009,254.958,262.986,251.935,262.986,248.219z M373.188,406.029h-47.701V273.868v-10.825v-35.138v-104.88   c0-13.151,10.699-23.851,23.851-23.851c13.151,0,23.851,10.699,23.851,23.851v149.144c-5.588,4.526-8.901,11.329-8.901,18.726   v5.956c0,7.397,3.313,14.199,8.901,18.726L373.188,406.029L373.188,406.029z"/>
	<path style="fill:#231F20;" d="M415.25,422.197H286.151c-4.466,0-8.084-3.62-8.084-8.084c0-4.466,3.618-8.084,8.084-8.084H415.25   c4.466,0,8.084,3.618,8.084,8.084C423.335,418.578,419.716,422.197,415.25,422.197z"/>
	<path style="fill:#231F20;" d="M458.131,422.197h-17.266c-4.466,0-8.084-3.62-8.084-8.084c0-4.466,3.618-8.084,8.084-8.084h17.266   c4.465,0,8.084,3.618,8.084,8.084C466.215,418.578,462.596,422.197,458.131,422.197z"/>
</g>
<g style="opacity:0.1;">
	<rect x="16.024" y="262.683" style="fill:#231F20;" width="17.246" height="239.293"/>
</g>
<g>
</g>
<g>
</g>
<g>
</g>
<g>
</g>
<g>
</g>
<g>
</g>
<g>
</g>
<g>
</g>
<g>
</g>
<g>
</g>
<g>
</g>
<g>
</g>
<g>
</g>
<g>
</g>
<g>
</g>
</svg>
