<!-- Generated by IcoMoon.io -->
<svg version="1.1" xmlns="http://www.w3.org/2000/svg" width="1024" height="1024" viewBox="0 0 1024 1024">
<g id="icomoon-ignore">
</g>
<path fill="#000" d="M57.557 896h567.552c31.744 0 57.557-25.813 57.557-57.557v-780.885c0-31.744-25.813-57.557-57.557-57.557h-567.552c-31.744 0-57.557 25.813-57.557 57.557v780.928c0 31.701 25.813 57.515 57.557 57.515zM42.667 57.557c0-8.235 6.699-14.891 14.891-14.891h567.552c8.192 0 14.891 6.656 14.891 14.891v780.928c0 8.192-6.699 14.848-14.891 14.848h-567.552c-8.192 0-14.891-6.656-14.891-14.891v-780.885z"></path>
<path fill="#000" d="M966.443 128h-198.613c-11.776 0-21.333 9.557-21.333 21.333s9.557 21.333 21.333 21.333h198.613c8.192 0 14.891 6.656 14.891 14.891v780.928c0 8.192-6.699 14.848-14.891 14.848h-567.552c-8.192 0-14.891-6.656-14.891-14.891 0-11.776-9.557-21.333-21.333-21.333s-21.333 9.557-21.333 21.333c0 31.744 25.813 57.557 57.557 57.557h567.552c31.744 0 57.557-25.813 57.557-57.557v-780.885c0-31.744-25.813-57.557-57.557-57.557z"></path>
</svg>
