<!-- Generated by IcoMoon.io -->
<svg version="1.1" xmlns="http://www.w3.org/2000/svg" width="1024" height="1024" viewBox="0 0 1024 1024">
<g id="icomoon-ignore">
</g>
<path fill="#000" d="M620.63 512.016l395.866-395.866c9.984-9.984 9.984-26.208 0-36.191l-72.415-72.415c-9.984-9.984-26.208-9.984-36.191 0l-395.866 395.866-395.866-395.898c-9.984-9.984-26.208-9.984-36.191 0l-72.447 72.415c-9.984 9.984-9.984 26.208 0 36.191l395.898 395.898-395.898 395.866c-9.984 9.984-9.984 26.208 0 36.191l72.415 72.415c9.984 9.984 26.208 9.984 36.191 0l395.898-395.866 395.866 395.866c9.984 9.984 26.208 9.984 36.191 0l72.415-72.415c9.984-9.984 9.984-26.208 0-36.191l-395.866-395.866z"></path>
</svg>
